<svg width="1200" height="1200" viewBox="0 0 1200 1200" fill="none" xmlns="http://www.w3.org/2000/svg">
  <rect width="1200" height="1200" rx="160" fill="#F8FAFC"/>
  <rect x="120" y="120" width="960" height="960" rx="120" fill="white"/>
  <rect x="120" y="120" width="960" height="960" rx="120" stroke="#E2E8F0" stroke-width="6"/>
  <rect x="190" y="190" width="300" height="300" rx="88" fill="url(#markbg)"/>
  <rect x="190" y="190" width="300" height="300" rx="88" stroke="url(#markstroke)" stroke-width="6"/>
  <path d="M267 273H347L418 503L489 273H569L461 638H375L267 273Z" fill="#1D4ED8"/>
  <path d="M594 273H674V638H594V273Z" fill="#0F172A"/>
  <circle cx="636" cy="214" r="28" fill="#F59E0B"/>
  <text x="190" y="660" fill="#0F172A" font-family="Inter, Arial, sans-serif" font-size="86" font-weight="800">
    Vishal AI Academy
  </text>
  <text x="190" y="740" fill="#1E293B" font-family="Inter, Arial, sans-serif" font-size="42" font-weight="600">
    Python for AI/ML Starter Kit
  </text>
  <text x="190" y="808" fill="#64748B" font-family="Inter, Arial, sans-serif" font-size="32">
    by V.M. AI Technologies Private Limited
  </text>
  <text x="190" y="930" fill="#475569" font-family="Inter, Arial, sans-serif" font-size="34">
    Beginner-friendly Python foundation for students starting AI/ML.
  </text>
  <defs>
    <linearGradient id="markbg" x1="220" y1="206" x2="454" y2="470" gradientUnits="userSpaceOnUse">
      <stop stop-color="#EFF6FF"/>
      <stop offset="1" stop-color="#FFF7ED"/>
    </linearGradient>
    <linearGradient id="markstroke" x1="224" y1="220" x2="460" y2="454" gradientUnits="userSpaceOnUse">
      <stop stop-color="#93C5FD"/>
      <stop offset="1" stop-color="#FCD34D"/>
    </linearGradient>
  </defs>
</svg>
